<svg width="25" height="24" viewBox="0 0 25 24" fill="none" xmlns="http://www.w3.org/2000/svg">
<path d="M17.7505 22.75H12.2705C11.8605 22.75 11.5205 22.41 11.5205 22C11.5205 21.59 11.8605 21.25 12.2705 21.25H17.7505C19.4105 21.25 20.7605 19.9 20.7605 18.24V17.8H19.6105C18.1005 17.8 16.8205 16.68 16.7005 15.24C16.6205 14.41 16.9205 13.6 17.5205 13.01C18.0305 12.49 18.7305 12.2 19.4805 12.2H20.7505V11.51C20.7505 9.85001 19.4005 8.5 17.7405 8.5H6.26048C4.60048 8.5 3.25049 9.85001 3.25049 11.51V13.24C3.25049 13.65 2.91049 13.99 2.50049 13.99C2.09049 13.99 1.75049 13.65 1.75049 13.24V11.51C1.75049 9.02001 3.77048 7 6.26048 7H17.7405C20.2305 7 22.2505 9.02001 22.2505 11.51V12.95C22.2505 13.36 21.9105 13.7 21.5005 13.7H19.4805C19.1305 13.7 18.8105 13.83 18.5805 14.07C18.2905 14.35 18.1505 14.73 18.1905 15.11C18.2505 15.77 18.8805 16.3 19.6005 16.3H21.5005C21.9105 16.3 22.2505 16.64 22.2505 17.05V18.24C22.2605 20.73 20.2405 22.75 17.7505 22.75Z" fill="#292D32"/>
<path d="M2.51025 13.16C2.10025 13.16 1.76025 12.82 1.76025 12.41V7.84006C1.76025 6.35006 2.70026 5.00001 4.09026 4.47001L12.0303 1.47001C12.8503 1.16001 13.7603 1.27005 14.4703 1.77005C15.1903 2.27005 15.6103 3.08005 15.6103 3.95005V7.75003C15.6103 8.16003 15.2703 8.50003 14.8603 8.50003C14.4503 8.50003 14.1103 8.16003 14.1103 7.75003V3.95005C14.1103 3.57005 13.9303 3.22003 13.6103 3.00003C13.2903 2.78003 12.9102 2.73003 12.5502 2.87003L4.61026 5.87003C3.80026 6.18003 3.25026 6.97006 3.25026 7.84006V12.41C3.26026 12.83 2.92025 13.16 2.51025 13.16Z" fill="#292D32"/>
<path d="M19.6102 17.7999C18.1002 17.7999 16.8202 16.6799 16.7002 15.2399C16.6202 14.4099 16.9202 13.5999 17.5202 13.0099C18.0302 12.4899 18.7302 12.2 19.4802 12.2H21.5602C22.5502 12.23 23.3102 13.0099 23.3102 13.9699V16.03C23.3102 16.99 22.5502 17.7699 21.5902 17.7999H19.6102ZM21.5402 13.7H19.4902C19.1402 13.7 18.8202 13.8299 18.5902 14.0699C18.3002 14.3499 18.1602 14.7299 18.2002 15.1099C18.2602 15.7699 18.8902 16.2999 19.6102 16.2999H21.5702C21.7002 16.2999 21.8202 16.18 21.8202 16.03V13.9699C21.8202 13.8199 21.7002 13.71 21.5402 13.7Z" fill="#292D32"/>
<path d="M14.0103 12.75H7.01025C6.60025 12.75 6.26025 12.41 6.26025 12C6.26025 11.59 6.60025 11.25 7.01025 11.25H14.0103C14.4203 11.25 14.7603 11.59 14.7603 12C14.7603 12.41 14.4203 12.75 14.0103 12.75Z" fill="#292D32"/>
<path d="M9.51025 19.69C9.10025 19.69 8.76025 19.35 8.76025 18.94V17.66C8.76025 17.44 8.58025 17.25 8.35025 17.25H3.01025C2.60025 17.25 2.26025 16.91 2.26025 16.5C2.26025 16.09 2.60025 15.75 3.01025 15.75H8.35025C9.40025 15.75 10.2603 16.61 10.2603 17.66V18.94C10.2603 19.35 9.92025 19.69 9.51025 19.69Z" fill="#292D32"/>
<path d="M4.2302 18.4699C4.0402 18.4699 3.8502 18.4 3.7002 18.25L2.4802 17.03C2.1902 16.74 2.1902 16.2599 2.4802 15.9699L3.7002 14.75C3.9902 14.46 4.47019 14.46 4.76019 14.75C5.05019 15.04 5.05019 15.52 4.76019 15.81L4.07019 16.5L4.76019 17.19C5.05019 17.48 5.05019 17.96 4.76019 18.25C4.61019 18.4 4.4202 18.4699 4.2302 18.4699Z" fill="#292D32"/>
<path d="M9.51025 22.5301H4.17026C3.12026 22.5301 2.26025 21.6701 2.26025 20.6201V19.3401C2.26025 18.9301 2.60025 18.5901 3.01025 18.5901C3.42025 18.5901 3.76025 18.9301 3.76025 19.3401V20.6201C3.76025 20.8401 3.94026 21.0301 4.17026 21.0301H9.51025C9.92025 21.0301 10.2603 21.3701 10.2603 21.7801C10.2603 22.1901 9.92025 22.5301 9.51025 22.5301Z" fill="#292D32"/>
<path d="M8.29047 23.75C8.10047 23.75 7.91047 23.68 7.76047 23.53C7.47047 23.24 7.47047 22.7599 7.76047 22.4699L8.45047 21.78L7.76047 21.09C7.47047 20.8 7.47047 20.32 7.76047 20.03C8.05047 19.74 8.53047 19.74 8.82047 20.03L10.0405 21.25C10.3305 21.54 10.3305 22.02 10.0405 22.31L8.82047 23.53C8.68047 23.68 8.48047 23.75 8.29047 23.75Z" fill="#292D32"/>
</svg>
