<svg width="32" height="32" viewBox="0 0 32 32" fill="none" xmlns="http://www.w3.org/2000/svg">
<path d="M19.6667 30.3333H13.6667V20.6667H12.4C11.6267 20.6667 11 20.04 11 19.2667V16.7333C11 15.96 11.6267 15.3333 12.4 15.3333H13.6667V12C13.6667 9.24 15.9067 7 18.6667 7H22.2667C23.04 7 23.6667 7.62665 23.6667 8.39998V11.6C23.6667 12.3733 23.04 13 22.2667 13H19.6667V15.3333H22.1733C22.6 15.3333 22.9867 15.52 23.2533 15.84C23.52 16.16 23.6267 16.5867 23.5467 17L23.04 19.5333C22.9067 20.1867 22.3333 20.6533 21.6667 20.6533H19.6667V30.3333V30.3333ZM15.6667 28.3333H17.6667V18.6667H21.1867L21.4533 17.3333H17.68V12.4C17.68 11.6267 18.3067 11 19.08 11H21.68V9H18.6667C17.0133 9 15.6667 10.3467 15.6667 12V17.3333H13V18.6667H15.6667V28.3333Z" fill="url(#paint0_linear_202_2242)"/>
<path d="M20 30.3333H12C4.76001 30.3333 1.66667 27.24 1.66667 20V12C1.66667 4.75996 4.76001 1.66663 12 1.66663H20C27.24 1.66663 30.3333 4.75996 30.3333 12V20C30.3333 27.24 27.24 30.3333 20 30.3333ZM12 3.66663C5.85334 3.66663 3.66667 5.85329 3.66667 12V20C3.66667 26.1466 5.85334 28.3333 12 28.3333H20C26.1467 28.3333 28.3333 26.1466 28.3333 20V12C28.3333 5.85329 26.1467 3.66663 20 3.66663H12Z" fill="url(#paint1_linear_202_2242)"/>
<defs>
<linearGradient id="paint0_linear_202_2242" x1="17.3333" y1="7" x2="17.3333" y2="30.3333" gradientUnits="userSpaceOnUse">
<stop stop-color="#5903E9"/>
<stop offset="1" stop-color="#7C30FA"/>
</linearGradient>
<linearGradient id="paint1_linear_202_2242" x1="16" y1="1.66663" x2="16" y2="30.3333" gradientUnits="userSpaceOnUse">
<stop stop-color="#5903E9"/>
<stop offset="1" stop-color="#7C30FA"/>
</linearGradient>
</defs>
</svg>
