<svg width="32" height="32" viewBox="0 0 32 32" fill="none" xmlns="http://www.w3.org/2000/svg">
<path d="M20 30.3333H12C4.75999 30.3333 1.66666 27.24 1.66666 20V12C1.66666 4.75996 4.75999 1.66663 12 1.66663H20C27.24 1.66663 30.3333 4.75996 30.3333 12V20C30.3333 27.24 27.24 30.3333 20 30.3333ZM12 3.66663C5.85332 3.66663 3.66666 5.85329 3.66666 12V20C3.66666 26.1466 5.85332 28.3333 12 28.3333H20C26.1467 28.3333 28.3333 26.1466 28.3333 20V12C28.3333 5.85329 26.1467 3.66663 20 3.66663H12Z" fill="url(#paint0_linear_202_2240)"/>
<path d="M16 21.6667C12.88 21.6667 10.3333 19.12 10.3333 16C10.3333 12.88 12.88 10.3334 16 10.3334C19.12 10.3334 21.6667 12.88 21.6667 16C21.6667 19.12 19.12 21.6667 16 21.6667ZM16 12.3334C13.9733 12.3334 12.3333 13.9734 12.3333 16C12.3333 18.0267 13.9733 19.6667 16 19.6667C18.0267 19.6667 19.6667 18.0267 19.6667 16C19.6667 13.9734 18.0267 12.3334 16 12.3334Z" fill="url(#paint1_linear_202_2240)"/>
<path d="M22.6667 9.99999C22.4933 9.99999 22.32 9.95999 22.16 9.89333C22 9.82666 21.8533 9.73333 21.72 9.61333C21.6 9.47999 21.4933 9.33333 21.4267 9.17333C21.36 9.01333 21.3333 8.83999 21.3333 8.66666C21.3333 8.49333 21.36 8.31999 21.4267 8.15999C21.5067 7.98666 21.6 7.85333 21.72 7.71999C21.7867 7.66666 21.8533 7.59999 21.92 7.55999C22 7.50666 22.08 7.46666 22.16 7.43999C22.24 7.39999 22.32 7.37333 22.4133 7.35999C22.84 7.26666 23.2933 7.41333 23.6133 7.71999C23.7333 7.85333 23.8267 7.98666 23.8933 8.15999C23.96 8.31999 24 8.49333 24 8.66666C24 8.83999 23.96 9.01333 23.8933 9.17333C23.8267 9.33333 23.7333 9.47999 23.6133 9.61333C23.48 9.73333 23.3333 9.82666 23.1733 9.89333C23.0133 9.95999 22.84 9.99999 22.6667 9.99999Z" fill="url(#paint2_linear_202_2240)"/>
<defs>
<linearGradient id="paint0_linear_202_2240" x1="16" y1="1.66663" x2="16" y2="30.3333" gradientUnits="userSpaceOnUse">
<stop stop-color="#5903E9"/>
<stop offset="1" stop-color="#7C30FA"/>
</linearGradient>
<linearGradient id="paint1_linear_202_2240" x1="16" y1="10.3334" x2="16" y2="21.6667" gradientUnits="userSpaceOnUse">
<stop stop-color="#5903E9"/>
<stop offset="1" stop-color="#7C30FA"/>
</linearGradient>
<linearGradient id="paint2_linear_202_2240" x1="22.6667" y1="7.33215" x2="22.6667" y2="9.99999" gradientUnits="userSpaceOnUse">
<stop stop-color="#5903E9"/>
<stop offset="1" stop-color="#7C30FA"/>
</linearGradient>
</defs>
</svg>
