<svg width="32" height="32" viewBox="0 0 32 32" fill="none" xmlns="http://www.w3.org/2000/svg">
<path d="M7.57333 30.3333C7.4 30.3333 7.22666 30.2933 7.06666 30.2C6.75999 30.0266 6.57333 29.6933 6.57333 29.3333V25.0666C3.44 22.5199 1.66667 18.8933 1.66667 15.0133C1.66667 7.65331 8.09334 1.66663 16 1.66663C23.9067 1.66663 30.3333 7.65331 30.3333 15.0133C30.3333 22.3733 23.9067 28.3599 16 28.3599C14.7067 28.3599 13.4267 28.2 12.1867 27.88L8.06666 30.2C7.91999 30.2933 7.74666 30.3333 7.57333 30.3333ZM16 3.66663C9.20001 3.66663 3.66667 8.75997 3.66667 15.0133C3.66667 18.4266 5.30669 21.6266 8.18669 23.7866C8.44002 23.9733 8.58668 24.2666 8.58668 24.5866V27.6266L11.5733 25.9466C11.8 25.8133 12.08 25.7866 12.3333 25.8533C13.52 26.1866 14.76 26.3599 16 26.3599C22.8 26.3599 28.3333 21.2666 28.3333 15.0133C28.3333 8.75997 22.8 3.66663 16 3.66663Z" fill="url(#paint0_linear_202_2241)"/>
<path d="M10 19.3333C9.66668 19.3333 9.33333 19.16 9.14666 18.8666C8.91999 18.4933 8.94666 18.0266 9.22666 17.6933L14.2667 11.6933C14.5734 11.3333 15.08 11.2266 15.4933 11.4533L17.4267 12.48L21.7333 11.3733C22.16 11.2666 22.6 11.44 22.8267 11.8133C23.0533 12.1866 23.0267 12.6533 22.7467 12.9866L17.7333 18.9866C17.4267 19.36 16.88 19.4533 16.4666 19.2133L14.7467 18.2133L10.2133 19.32C10.16 19.32 10.08 19.3333 10 19.3333ZM14.92 16.1333C15.0933 16.1333 15.2667 16.1733 15.4267 16.2667L16.76 17.04L19.24 14.0666L17.56 14.4933C17.32 14.56 17.0667 14.52 16.84 14.4133L15.28 13.5866L12.72 16.6266L14.6667 16.1466C14.76 16.1466 14.84 16.1333 14.92 16.1333Z" fill="url(#paint1_linear_202_2241)"/>
<defs>
<linearGradient id="paint0_linear_202_2241" x1="16" y1="1.66663" x2="16" y2="30.3333" gradientUnits="userSpaceOnUse">
<stop stop-color="#5903E9"/>
<stop offset="1" stop-color="#7C30FA"/>
</linearGradient>
<linearGradient id="paint1_linear_202_2241" x1="15.9867" y1="11.3344" x2="15.9867" y2="19.3455" gradientUnits="userSpaceOnUse">
<stop stop-color="#5903E9"/>
<stop offset="1" stop-color="#7C30FA"/>
</linearGradient>
</defs>
</svg>
