<?xml version="1.0" encoding="UTF-8"?>
<!DOCTYPE svg PUBLIC "-//W3C//DTD SVG 1.1//EN" "http://www.w3.org/Graphics/SVG/1.1/DTD/svg11.dtd">
<svg xmlns="http://www.w3.org/2000/svg" version="1.1" width="354px" height="220px" style="shape-rendering:geometricPrecision; text-rendering:geometricPrecision; image-rendering:optimizeQuality; fill-rule:evenodd; clip-rule:evenodd" xmlns:xlink="http://www.w3.org/1999/xlink">
<g><path style="opacity:0.988" fill="#010101" d="M 88.5,115.5 C 84.0878,118.105 79.4211,118.772 74.5,117.5C 69.532,115.529 65.8653,112.196 63.5,107.5C 61.1747,94.4792 66.5081,86.8125 79.5,84.5C 81.0998,84.5507 82.5998,84.8841 84,85.5C 84.9198,72.7763 84.5865,60.1097 83,47.5C 81.3626,45.1898 79.196,43.6898 76.5,43C 58.8333,42.3333 41.1667,42.3333 23.5,43C 20,43.8333 17.8333,46 17,49.5C 16.5,68.8305 16.3334,88.1638 16.5,107.5C 14.8561,107.286 13.3561,107.62 12,108.5C 11.3333,88.8333 11.3333,69.1667 12,49.5C 13.0957,44.7396 15.9291,41.5729 20.5,40C 40.5,39.3333 60.5,39.3333 80.5,40C 84,41.5 86.5,44 88,47.5C 88.3333,60.8333 88.6667,74.1667 89,87.5C 95.1266,92.8393 97.1266,99.506 95,107.5C 93.7261,110.936 91.5594,113.603 88.5,115.5 Z"/></g>
<g><path style="opacity:0.935" fill="#000000" d="M 190.5,39.5 C 205.225,37.8586 215.891,43.5253 222.5,56.5C 220.955,57.4519 219.288,57.7852 217.5,57.5C 215.848,51.674 212.181,47.5074 206.5,45C 185.414,40.0802 173.748,48.4135 171.5,70C 173.748,91.5865 185.414,99.9198 206.5,95C 212.181,92.4926 215.848,88.326 217.5,82.5C 219.288,82.2148 220.955,82.5481 222.5,83.5C 214.762,98.1954 202.762,103.362 186.5,99C 174.191,93.4118 167.858,83.7451 167.5,70C 168.349,54.3593 176.015,44.1926 190.5,39.5 Z"/></g>
<g><path style="opacity:0.939" fill="#000000" d="M 303.5,39.5 C 313.875,38.0043 319.875,42.3376 321.5,52.5C 320.167,52.5 318.833,52.5 317.5,52.5C 317.192,46.1924 313.859,42.859 307.5,42.5C 299.283,43.9367 296.45,48.6034 299,56.5C 307.296,66.4648 315.963,76.1314 325,85.5C 328.333,80.1667 331.667,74.8333 335,69.5C 336.388,68.4464 337.888,68.2797 339.5,69C 335.826,75.3494 332.16,81.6828 328.5,88C 331.451,91.9541 334.784,95.6207 338.5,99C 336.833,99.6667 335.167,99.6667 333.5,99C 330.984,96.3167 328.317,93.8167 325.5,91.5C 315.89,101.257 304.89,103.09 292.5,97C 285.954,89.7041 284.787,81.5374 289,72.5C 292.042,69.0673 295.542,66.234 299.5,64C 290.579,53.8957 291.913,45.729 303.5,39.5 Z M 300.5,67.5 C 301.552,67.3505 302.552,67.5172 303.5,68C 309.301,74.8025 315.468,81.3025 322,87.5C 321.052,90.8006 318.885,93.3006 315.5,95C 305.009,99.7233 296.842,97.2233 291,87.5C 289.095,78.3131 292.262,71.6464 300.5,67.5 Z"/></g>
<g><path style="opacity:0.934" fill="#000000" d="M 107.5,40.5 C 115.507,40.3336 123.507,40.5003 131.5,41C 141.071,44.9866 144.571,52.1533 142,62.5C 140.421,68.4099 136.588,71.9099 130.5,73C 124.175,73.4995 117.842,73.6662 111.5,73.5C 111.5,82.1667 111.5,90.8333 111.5,99.5C 110.167,99.5 108.833,99.5 107.5,99.5C 107.5,79.8333 107.5,60.1667 107.5,40.5 Z M 111.5,43.5 C 118.241,43.1712 124.908,43.6712 131.5,45C 138.142,48.9702 140.309,54.8036 138,62.5C 135.736,67.3834 131.902,69.8834 126.5,70C 121.511,70.4993 116.511,70.6659 111.5,70.5C 111.5,61.5 111.5,52.5 111.5,43.5 Z"/></g>
<g><path style="opacity:1" fill="#000100" d="M 152.5,40.5 C 153.833,40.5 155.167,40.5 156.5,40.5C 156.5,60.1667 156.5,79.8333 156.5,99.5C 155.167,99.5 153.833,99.5 152.5,99.5C 152.5,79.8333 152.5,60.1667 152.5,40.5 Z"/></g>
<g><path style="opacity:0.97" fill="#000000" d="M 234.5,40.5 C 235.833,40.5 237.167,40.5 238.5,40.5C 238.334,49.5062 238.5,58.5062 239,67.5C 247.136,58.3631 255.636,49.5298 264.5,41C 266.167,40.3333 267.833,40.3333 269.5,41C 260.53,50.9704 251.197,60.6371 241.5,70C 250.833,79.6667 260.167,89.3333 269.5,99C 267.833,99.6667 266.167,99.6667 264.5,99C 255.636,90.4702 247.136,81.6369 239,72.5C 238.5,81.4938 238.334,90.4938 238.5,99.5C 237.167,99.5 235.833,99.5 234.5,99.5C 234.5,79.8333 234.5,60.1667 234.5,40.5 Z"/></g>
<g><path style="opacity:0.994" fill="#000100" d="M 37.5,45.5 C 46.1667,45.5 54.8333,45.5 63.5,45.5C 63.5,46.8333 63.5,48.1667 63.5,49.5C 54.8333,49.5 46.1667,49.5 37.5,49.5C 37.5,48.1667 37.5,46.8333 37.5,45.5 Z"/></g>
<g><path style="opacity:1" fill="#fafafa" d="M 83.5,94.5 C 90.1645,94.6447 91.1645,97.1447 86.5,102C 87.943,104.078 87.2763,104.911 84.5,104.5C 84.1489,101.762 83.4822,99.0956 82.5,96.5C 82.8627,95.8165 83.1961,95.1499 83.5,94.5 Z"/></g>
<g><path style="opacity:1" fill="#f9f9f9" d="M 74.5,98.5 C 75.484,95.9296 76.6507,95.9296 78,98.5C 78.8333,97.5 79.6667,96.5 80.5,95.5C 80.6477,99.2045 80.6477,102.871 80.5,106.5C 78.8889,103.554 76.8889,100.887 74.5,98.5 Z"/></g>
<g><path style="opacity:1" fill="#000100" d="M 85.5,96.5 C 87.337,96.6395 87.6704,97.3061 86.5,98.5C 85.7025,98.0431 85.3691,97.3764 85.5,96.5 Z"/></g>
<g><path style="opacity:0.9" fill="#000000" d="M 56.5,98.5 C 57.9778,98.238 59.3112,98.5713 60.5,99.5C 45.2694,104.852 29.7694,109.519 14,113.5C 12.9412,113.37 12.1079,112.87 11.5,112C 26.5153,107.333 41.5153,102.833 56.5,98.5 Z"/></g>
<g><path style="opacity:1" fill="#fefefe" d="M 74.5,98.5 C 73.653,99.9663 72.3197,100.8 70.5,101C 71.8905,102.02 73.3905,102.853 75,103.5C 76.1772,107.492 74.6772,109.158 70.5,108.5C 70.3505,107.448 70.5172,106.448 71,105.5C 71.8928,106.711 72.7261,106.711 73.5,105.5C 72.2643,104.643 70.931,103.977 69.5,103.5C 67.9478,99.0715 69.6145,97.4048 74.5,98.5 Z"/></g>
<g><path style="opacity:0.904" fill="#000000" d="M 60.5,108.5 C 60.1667,108.5 59.8333,108.5 59.5,108.5C 44.4329,113.06 29.2662,117.393 14,121.5C 10.937,121.065 10.7703,120.232 13.5,119C 28.3135,114.755 43.1469,110.588 58,106.5C 59.3756,106.684 60.2089,107.351 60.5,108.5 Z"/></g>
<g><path style="opacity:1" fill="#fefefe" d="M 63.5,107.5 C 65.8653,112.196 69.532,115.529 74.5,117.5C 74.5,138.167 74.5,158.833 74.5,179.5C 69.5,179.5 64.5,179.5 59.5,179.5C 59.5,159.833 59.5,140.167 59.5,120.5C 59.5,119.167 59.5,117.833 59.5,116.5C 64.6393,115.059 64.6393,114.059 59.5,113.5C 59.5,111.833 59.5,110.167 59.5,108.5C 59.8333,108.5 60.1667,108.5 60.5,108.5C 61.609,108.443 62.609,108.11 63.5,107.5 Z"/></g>
<g><path style="opacity:0.895" fill="#010101" d="M 59.5,113.5 C 64.6393,114.059 64.6393,115.059 59.5,116.5C 51.2474,119.148 42.9141,121.648 34.5,124C 32.7412,124.798 31.0745,124.631 29.5,123.5C 39.4907,119.948 49.4907,116.614 59.5,113.5 Z"/></g>
<g><path style="opacity:1" fill="#722282" d="M 88.5,115.5 C 88.6666,133.836 88.4999,152.17 88,170.5C 85.7611,176.908 81.2611,179.908 74.5,179.5C 74.5,158.833 74.5,138.167 74.5,117.5C 79.4211,118.772 84.0878,118.105 88.5,115.5 Z"/></g>
<g><path style="opacity:0.993" fill="#702180" d="M 127.5,118.5 C 139.266,117.36 148.766,121.36 156,130.5C 157.411,132.65 158.245,134.984 158.5,137.5C 157.127,137.657 155.793,137.49 154.5,137C 148.766,125.466 139.432,120.799 126.5,123C 114.1,127.1 107.767,135.767 107.5,149C 109.504,169.356 120.504,178.022 140.5,175C 146.751,172.417 151.418,168.084 154.5,162C 155.944,161.219 157.277,161.386 158.5,162.5C 151.921,176.457 140.921,181.957 125.5,179C 111.303,174.492 103.97,164.659 103.5,149.5C 104.129,133.23 112.129,122.897 127.5,118.5 Z"/></g>
<g><path style="opacity:0.996" fill="#712181" d="M 257.5,118.5 C 272.261,117.07 282.595,123.07 288.5,136.5C 287.277,137.614 285.944,137.781 284.5,137C 275.9,122.513 263.9,118.847 248.5,126C 238.532,135.143 235.365,146.31 239,159.5C 247.246,176.026 259.746,180.193 276.5,172C 279.798,169.536 282.132,166.37 283.5,162.5C 285.167,161.167 286.833,161.167 288.5,162.5C 281.567,176.663 270.234,182.163 254.5,179C 238.538,172.589 231.704,160.756 234,143.5C 236.227,129.776 244.06,121.443 257.5,118.5 Z"/></g>
<g><path style="opacity:0.996" fill="#722182" d="M 174.5,119.5 C 175.833,119.5 177.167,119.5 178.5,119.5C 178.5,138.167 178.5,156.833 178.5,175.5C 185.833,175.5 193.167,175.5 200.5,175.5C 200.5,176.833 200.5,178.167 200.5,179.5C 191.833,179.5 183.167,179.5 174.5,179.5C 174.5,159.5 174.5,139.5 174.5,119.5 Z"/></g>
<g><path style="opacity:0.999" fill="#712181" d="M 214.5,119.5 C 215.833,119.5 217.167,119.5 218.5,119.5C 218.5,139.5 218.5,159.5 218.5,179.5C 217.167,179.5 215.833,179.5 214.5,179.5C 214.5,159.5 214.5,139.5 214.5,119.5 Z"/></g>
<g><path style="opacity:0.996" fill="#712181" d="M 305.5,119.5 C 306.833,119.5 308.167,119.5 309.5,119.5C 309.334,128.839 309.5,138.173 310,147.5C 318.5,138.333 327,129.167 335.5,120C 337.5,119.333 339.5,119.333 341.5,120C 331.619,129.38 322.285,139.213 313.5,149.5C 323.016,159.182 332.349,169.015 341.5,179C 339.833,179.667 338.167,179.667 336.5,179C 327.303,170.137 318.469,160.97 310,151.5C 309.5,160.827 309.334,170.161 309.5,179.5C 308.167,179.5 306.833,179.5 305.5,179.5C 305.5,159.5 305.5,139.5 305.5,119.5 Z"/></g>
<g><path style="opacity:0.999" fill="#712181" d="M 59.5,120.5 C 59.5,140.167 59.5,159.833 59.5,179.5C 45.735,179.964 32.0683,179.464 18.5,178C 15.1309,175.635 12.9643,172.468 12,168.5C 11.5001,156.838 11.3335,145.171 11.5,133.5C 27.603,129.475 43.603,125.141 59.5,120.5 Z"/></g>
<g><path style="opacity:1" fill="#fefefe" d="M 26.5,143.5 C 30.1817,143.335 33.8484,143.501 37.5,144C 38.3081,144.308 38.9747,144.808 39.5,145.5C 40.6236,151.448 40.7903,157.448 40,163.5C 39.6258,164.416 39.1258,165.25 38.5,166C 34.5,166.667 30.5,166.667 26.5,166C 26,165.5 25.5,165 25,164.5C 24.3333,158.167 24.3333,151.833 25,145.5C 25.7172,144.956 26.2172,144.289 26.5,143.5 Z"/></g>
</svg>
