<svg width="16" height="16" viewBox="0 0 16 16" fill="none" xmlns="http://www.w3.org/2000/svg">
<path d="M8 14.5686C4.04666 14.5686 0.833328 11.5443 0.833328 7.82354C0.833328 4.10276 4.04666 1.07844 8 1.07844C11.9533 1.07844 15.1667 4.10276 15.1667 7.82354C15.1667 11.5443 11.9533 14.5686 8 14.5686ZM8 2.01962C4.6 2.01962 1.83333 4.62354 1.83333 7.82354C1.83333 11.0235 4.6 13.6275 8 13.6275C11.4 13.6275 14.1667 11.0235 14.1667 7.82354C14.1667 4.62354 11.4 2.01962 8 2.01962Z" fill="#72CC47"/>
<path d="M7.05334 10.0698C6.92 10.0698 6.79334 10.0196 6.7 9.93177L4.81333 8.15609C4.62 7.97413 4.62 7.67295 4.81333 7.49099C5.00667 7.30903 5.32667 7.30903 5.52 7.49099L7.05334 8.93413L10.48 5.70903C10.6733 5.52707 10.9933 5.52707 11.1867 5.70903C11.38 5.89099 11.38 6.19217 11.1867 6.37413L7.40667 9.93177C7.31334 10.0196 7.18667 10.0698 7.05334 10.0698Z" fill="#72CC47"/>
</svg>
