<svg width="24" height="24" viewBox="0 0 24 24" fill="none" xmlns="http://www.w3.org/2000/svg">
<path d="M3.78667 18.16L4.44226 18.4885L4.64466 18.0823L4.37333 17.72L3.78667 18.16ZM5.84 20.2133L6.28 19.6267L5.91773 19.3553L5.51146 19.5577L5.84 20.2133ZM1.73333 22.2667L1.07773 21.9381C1.00907 22.0757 0.985382 22.2313 1.01 22.3831C1.03462 22.5348 1.10631 22.675 1.21494 22.7838C1.32356 22.8926 1.46363 22.9645 1.61535 22.9893C1.76706 23.0142 1.92275 22.9907 2.0604 22.9223L1.73333 22.2667ZM1 12C1 14.4757 1.8184 16.7623 3.2 18.6L4.37333 17.72C3.13283 16.0713 2.46348 14.0632 2.46667 12H1ZM12 1C9.08261 1 6.28472 2.15892 4.22182 4.22182C2.15892 6.28472 1 9.08262 1 12H2.46667C2.46667 9.4716 3.47107 7.04676 5.25891 5.25891C7.04676 3.47107 9.4716 2.46667 12 2.46667V1ZM23 12C23 9.08262 21.8411 6.28472 19.7782 4.22182C17.7153 2.15892 14.9174 1 12 1V2.46667C13.2519 2.46667 14.4916 2.71325 15.6482 3.19235C16.8049 3.67144 17.8558 4.37366 18.7411 5.25891C19.6263 6.14416 20.3285 7.19511 20.8076 8.35175C21.2867 9.50838 21.5333 10.7481 21.5333 12H23ZM12 23C14.9174 23 17.7153 21.8411 19.7782 19.7782C21.8411 17.7153 23 14.9174 23 12H21.5333C21.5333 13.2519 21.2867 14.4916 20.8076 15.6482C20.3285 16.8049 19.6263 17.8558 18.7411 18.7411C17.8558 19.6263 16.8049 20.3285 15.6482 20.8076C14.4916 21.2867 13.2519 21.5333 12 21.5333V23ZM5.4 20.8C7.30255 22.2309 9.61941 23.0032 12 23V21.5333C9.93673 21.5366 7.92863 20.8673 6.28 19.6267L5.4 20.8ZM2.0604 22.9223L6.16706 20.8689L5.51146 19.5577L1.40333 21.6111L2.0604 22.9223ZM3.1296 17.8329L1.07627 21.9396L2.38747 22.5952L4.44226 18.4885L3.1296 17.8329Z" fill="#292D32"/>
<path d="M17.6787 13.8029L14.5819 12.2545C14.4905 12.209 14.3886 12.1885 14.2867 12.1949C14.1847 12.2014 14.0863 12.2346 14.0013 12.2913L12.4839 13.3026C11.7157 12.9093 11.0907 12.2843 10.6974 11.5161L11.7097 9.99968C11.7663 9.91468 11.7996 9.81624 11.806 9.71429C11.8125 9.61235 11.7919 9.5105 11.7465 9.41903L10.1981 6.32226C10.1499 6.22537 10.0757 6.14386 9.98367 6.08692C9.89168 6.02998 9.78561 5.99988 9.67742 6C8.70211 6 7.76674 6.38744 7.07709 7.07709C6.38744 7.76674 6 8.70211 6 9.67742C6.00256 11.8839 6.88022 13.9993 8.44046 15.5595C10.0007 17.1198 12.1161 17.9974 14.3226 18C15.2979 18 16.2333 17.6126 16.9229 16.9229C17.6126 16.2333 18 15.2979 18 14.3226C18 14.2147 17.97 14.1089 17.9132 14.0171C17.8565 13.9253 17.7753 13.8511 17.6787 13.8029ZM14.3226 16.8387C12.424 16.8364 10.6038 16.0812 9.26133 14.7387C7.91883 13.3962 7.1636 11.576 7.16129 9.67742C7.16135 9.07016 7.38102 8.4834 7.77978 8.02541C8.17855 7.56742 8.72949 7.2691 9.33097 7.18548L10.5561 9.63581L9.55065 11.1435C9.49781 11.2231 9.46541 11.3144 9.45629 11.4094C9.44718 11.5045 9.46163 11.6003 9.49839 11.6884C10.0323 12.9578 11.0422 13.9677 12.3116 14.5016C12.3997 14.5384 12.4955 14.5528 12.5906 14.5437C12.6856 14.5346 12.7769 14.5022 12.8565 14.4494L14.3642 13.4439L16.8145 14.669C16.7309 15.2705 16.4326 15.8215 15.9746 16.2202C15.5166 16.619 14.9298 16.8387 14.3226 16.8387Z" fill="#292D32" stroke="#292D32" stroke-width="0.2"/>
</svg>
